<svg width="23" height="18" viewBox="0 0 23 18" fill="none" xmlns="http://www.w3.org/2000/svg">
<path d="M19.4362 9.35399V14.9553C19.4362 15.3797 19.2204 15.7868 18.8362 16.0869C18.4521 16.387 17.931 16.5556 17.3877 16.5556H3.04847C2.50518 16.5556 1.98414 16.387 1.59998 16.0869C1.21582 15.7868 1 15.3797 1 14.9553V3.75271C1 3.32827 1.21582 2.92121 1.59998 2.62108C1.98414 2.32095 2.50518 2.15234 3.04847 2.15234H14.315" stroke="#2072B9" stroke-linecap="round" stroke-linejoin="round"/>
<circle cx="6.76164" cy="5.03312" r="0.75" fill="white" stroke="#2072B9" stroke-width="0.804527"/>
<path d="M6.73111 7.55378L2.72852 13.6752H16.5557L13.0209 5.0332L9.78071 11.2912L6.73111 7.55378Z" stroke="#2072B9" stroke-linejoin="round"/>
<path d="M19.2783 1V6.44444" stroke="#2072B9" stroke-linecap="round"/>
<path d="M16.5557 3.72266L22.0001 3.72266" stroke="#2072B9" stroke-linecap="round"/>
</svg>
