<svg width="768" height="596" viewBox="0 0 768 596" fill="none" xmlns="http://www.w3.org/2000/svg">
<path d="M379.174 43.7351C91.571 168.797 146.345 312.937 191.412 376.958C198.232 386.635 207.571 397.848 217.954 408.968C249.78 366.851 305.845 299.266 373.952 245.106C497.386 147.017 581.467 118.877 597.134 126.188C601.036 128.001 603.493 131.687 603.616 135.834C603.831 143.514 596.581 147.385 593.847 148.829C569.148 162.008 530.441 188.09 449.861 273.523C398.282 328.174 353.338 406.849 317.211 470.04C315.368 473.266 313.525 476.461 311.743 479.625C312.542 479.993 313.31 480.393 314.109 480.731C615.014 599.096 768 24.2892 768 24.2892C768 24.2892 599.776 -41.6365 379.174 43.7351Z" fill="#2471B8"/>
<path d="M13.9407 422.915C46.6578 447.645 59.1609 451.116 86.5327 488.441C131.261 549.452 124.687 574.704 137.958 586.316C151.23 597.928 212.056 607.329 253.528 554.244C295 501.16 359.697 354.624 442.642 266.703C525.587 178.781 564.294 153.345 589.177 140.074C614.061 126.802 535.202 129.629 380.157 252.878C272.329 338.588 196.02 456.922 196.02 456.922C196.02 456.922 174.454 392.226 126.346 349.094C78.2382 305.963 -40.3727 381.873 13.9407 422.915Z" fill="#1B294A"/>
</svg>
