<svg width="68" height="68" viewBox="0 0 68 68" fill="none" xmlns="http://www.w3.org/2000/svg">
<g filter="url(#filter0_d_1690_466)">
<circle cx="34" cy="30" r="30" fill="#2072B9"/>
<circle cx="34" cy="30" r="29" stroke="#1B294A" stroke-width="2"/>
</g>
<path d="M28.4736 28.6315L33.2105 33.3683L49 17.5789" stroke="white" stroke-width="2" stroke-linecap="round" stroke-linejoin="round"/>
<path d="M47.4211 30.2105V41.2632C47.4211 42.1007 47.0883 42.9039 46.4961 43.4961C45.9039 44.0883 45.1007 44.4211 44.2632 44.4211H22.1579C21.3204 44.4211 20.5171 44.0883 19.9249 43.4961C19.3327 42.9039 19 42.1007 19 41.2632V19.1579C19 18.3204 19.3327 17.5171 19.9249 16.9249C20.5171 16.3327 21.3204 16 22.1579 16H39.5263" stroke="white" stroke-width="2" stroke-linecap="round" stroke-linejoin="round"/>
<defs>
<filter id="filter0_d_1690_466" x="0" y="0" width="68" height="68" filterUnits="userSpaceOnUse" color-interpolation-filters="sRGB">
<feFlood flood-opacity="0" result="BackgroundImageFix"/>
<feColorMatrix in="SourceAlpha" type="matrix" values="0 0 0 0 0 0 0 0 0 0 0 0 0 0 0 0 0 0 127 0" result="hardAlpha"/>
<feOffset dy="4"/>
<feGaussianBlur stdDeviation="2"/>
<feComposite in2="hardAlpha" operator="out"/>
<feColorMatrix type="matrix" values="0 0 0 0 0 0 0 0 0 0 0 0 0 0 0 0 0 0 0.25 0"/>
<feBlend mode="normal" in2="BackgroundImageFix" result="effect1_dropShadow_1690_466"/>
<feBlend mode="normal" in="SourceGraphic" in2="effect1_dropShadow_1690_466" result="shape"/>
</filter>
</defs>
</svg>
