<svg width="23" height="33" viewBox="0 0 23 33" fill="none" xmlns="http://www.w3.org/2000/svg">
<path d="M1.84916 5.71875C0.821847 5.71875 0 6.5406 0 7.56791V30.9906C0 32.0179 0.821847 32.8397 1.84916 32.8397H20.4777C21.505 32.8397 22.3269 32.0179 22.3269 30.9906V7.56791C22.3269 6.5406 21.505 5.71875 20.4777 5.71875H18.1491V6.33514C18.1491 7.15698 17.4643 7.84186 16.6424 7.84186H5.68444C4.8626 7.84186 4.17772 7.15698 4.17772 6.33514V5.71875H1.84916Z" fill="white"/>
<path d="M14.382 3.59624C13.971 3.59624 13.6286 3.25381 13.6286 2.84288V2.43196C13.6286 1.74709 13.3547 1.1307 12.8752 0.719779C12.3273 0.17188 11.5055 -0.102069 10.6837 0.0349058C10.1358 0.103393 9.58786 0.445829 9.24542 0.92524C8.8345 1.40465 8.62903 2.02104 8.62903 2.63742C8.62903 3.18532 8.14962 3.66473 7.60172 3.66473H5.68408V6.33574H16.642V3.59624H14.382ZM11.1631 3.39078C10.5467 3.39078 10.0673 2.91137 10.0673 2.29499C10.0673 1.6786 10.5467 1.19919 11.1631 1.19919C11.7794 1.19919 12.2589 1.6786 12.2589 2.29499C12.2589 2.91137 11.7794 3.39078 11.1631 3.39078Z" fill="white"/>
<path d="M11 26C14.85 26 18 22.85 18 19C18 15.15 14.85 12 11 12C7.15 12 4 15.15 4 19C4 22.85 7.15 26 11 26Z" stroke="#2072B9" stroke-width="2" stroke-linecap="round" stroke-linejoin="round"/>
<path d="M8.0249 19L10.0059 20.981L13.9749 17.019" stroke="#2072B9" stroke-width="2" stroke-linecap="round" stroke-linejoin="round"/>
</svg>
