<svg width="22" height="18" viewBox="0 0 22 18" fill="none" xmlns="http://www.w3.org/2000/svg">
<path d="M21.2463 4.5V16.0714C21.2463 17.1362 20.3542 18 19.2545 18H1.99184C0.89218 18 0 17.1362 0 16.0714V4.5C0 3.43527 0.89218 2.57143 1.99184 2.57143H5.64356L6.15397 1.24955C6.44444 0.498214 7.18724 0 8.01717 0H13.225C14.0549 0 14.7977 0.498214 15.0882 1.24955L15.6028 2.57143H19.2545C20.3542 2.57143 21.2463 3.43527 21.2463 4.5ZM15.6028 10.2857C15.6028 7.62589 13.3703 5.46429 10.6232 5.46429C7.87608 5.46429 5.64356 7.62589 5.64356 10.2857C5.64356 12.9455 7.87608 15.1071 10.6232 15.1071C13.3703 15.1071 15.6028 12.9455 15.6028 10.2857ZM14.2749 10.2857C14.2749 12.2344 12.6358 13.8214 10.6232 13.8214C8.61057 13.8214 6.97145 12.2344 6.97145 10.2857C6.97145 8.33705 8.61057 6.75 10.6232 6.75C12.6358 6.75 14.2749 8.33705 14.2749 10.2857Z" fill="white"/>
</svg>
