<svg width="20" height="15" viewBox="0 0 20 15" fill="none" xmlns="http://www.w3.org/2000/svg">
<path d="M14.5316 5.35714C14.5316 2.39732 11.4246 0 7.59003 0C3.75547 0 0.648438 2.39732 0.648438 5.35714C0.648438 6.50558 1.119 7.56362 1.91661 8.4375C1.46941 9.44866 0.73187 10.2522 0.721858 10.2623C0.648438 10.3393 0.628414 10.4531 0.671799 10.5536C0.715184 10.654 0.808628 10.7143 0.915422 10.7143C2.13688 10.7143 3.14808 10.3025 3.87561 9.87723C4.95022 10.4029 6.22174 10.7143 7.59003 10.7143C11.4246 10.7143 14.5316 8.31696 14.5316 5.35714ZM18.6031 12.7232C19.4008 11.8527 19.8713 10.7913 19.8713 9.64286C19.8713 7.4029 18.0859 5.48437 15.5562 4.68415C15.5862 4.90513 15.5996 5.12946 15.5996 5.35714C15.5996 8.9029 12.0053 11.7857 7.59003 11.7857C7.2296 11.7857 6.87918 11.7589 6.5321 11.7221C7.58336 13.6473 10.053 15 12.9297 15C14.298 15 15.5695 14.692 16.6441 14.1629C17.3717 14.5882 18.3829 15 19.6043 15C19.7111 15 19.8079 14.9364 19.8479 14.8393C19.8913 14.7422 19.8713 14.6283 19.7979 14.548C19.7879 14.5379 19.0503 13.7377 18.6031 12.7232Z" fill="white"/>
</svg>
