<svg width="32" height="32" viewBox="0 0 32 32" fill="none" xmlns="http://www.w3.org/2000/svg">
<circle cx="16" cy="16" r="15" fill="#00C600" stroke="#1B294A" stroke-width="2"/>
<g clip-path="url(#clip0_2317_4094)">
<path d="M22.3263 19.7446L22.7076 22.8344C22.8054 23.6459 21.9351 24.213 21.2409 23.7926L17.144 21.3579C16.6943 21.3579 16.2543 21.3286 15.824 21.2699C16.5652 20.4108 16.9744 19.3148 16.9778 18.1801C16.9778 15.4033 14.5725 13.1544 11.6 13.1544C10.4658 13.1544 9.41959 13.477 8.54936 14.0441C8.52003 13.7997 8.51025 13.5553 8.51025 13.301C8.51025 8.85214 12.3725 5.24414 17.144 5.24414C21.9156 5.24414 25.7778 8.85214 25.7778 13.301C25.7778 15.941 24.4187 18.2779 22.3263 19.7446Z" stroke="white" stroke-linecap="round" stroke-linejoin="round"/>
<path d="M16.9777 18.1806C16.9777 19.3441 16.5475 20.4197 15.8239 21.2703C14.8559 22.4437 13.3208 23.1966 11.5999 23.1966L9.04795 24.7121C8.61772 24.9761 8.07017 24.6143 8.12883 24.1157L8.37328 22.1895C7.06306 21.2801 6.22217 19.8232 6.22217 18.1806C6.22217 16.4597 7.14128 14.9441 8.54928 14.0446C9.4195 13.4775 10.4657 13.1548 11.5999 13.1548C14.5724 13.1548 16.9777 15.4037 16.9777 18.1806Z" stroke="white" stroke-linecap="round" stroke-linejoin="round"/>
</g>
<defs>
<clipPath id="clip0_2317_4094">
<rect width="23.4667" height="23.4667" fill="white" transform="translate(4.2666 4.2666)"/>
</clipPath>
</defs>
</svg>
