<svg width="42" height="42" viewBox="0 0 42 42" fill="none" xmlns="http://www.w3.org/2000/svg">
<circle cx="21" cy="21" r="20" fill="white" stroke="#1B294A" stroke-width="2"/>
<path d="M29.3032 25.9154L29.8037 29.9707C29.932 31.0359 28.7898 31.7802 27.8787 31.2284L22.5015 28.0329C21.9112 28.0329 21.3337 27.9944 20.769 27.9174C21.7418 26.7897 22.2789 25.3513 22.2833 23.862C22.2833 20.2174 19.1263 17.2657 15.225 17.2657C13.7363 17.2657 12.3632 17.6892 11.221 18.4335C11.1825 18.1127 11.1697 17.7919 11.1697 17.4582C11.1697 11.619 16.2388 6.88354 22.5015 6.88354C28.7642 6.88354 33.8333 11.619 33.8333 17.4582C33.8333 20.9232 32.0495 23.9904 29.3032 25.9154Z" stroke="#1B294A" stroke-width="1.5" stroke-linecap="round" stroke-linejoin="round"/>
<path d="M22.2834 23.862C22.2834 25.3891 21.7187 26.8008 20.7691 27.9173C19.4986 29.4573 17.4837 30.4455 15.2251 30.4455L11.8756 32.4346C11.3109 32.7811 10.5922 32.3063 10.6692 31.6518L10.9901 29.1236C9.27041 27.9301 8.16675 26.018 8.16675 23.862C8.16675 21.6033 9.37308 19.6141 11.2211 18.4335C12.3632 17.6891 13.7364 17.2656 15.2251 17.2656C19.1264 17.2656 22.2834 20.2173 22.2834 23.862Z" stroke="#1B294A" stroke-width="1.5" stroke-linecap="round" stroke-linejoin="round"/>
</svg>
