<svg width="42" height="42" viewBox="0 0 42 42" fill="none" xmlns="http://www.w3.org/2000/svg">
<circle cx="21" cy="21" r="21" fill="#1B294A"/>
<path d="M20.9603 20.1111C22.9253 20.1111 24.5159 18.5205 24.5159 16.5556C24.5159 14.5906 22.9253 13 20.9603 13C18.9954 13 17.4048 14.5906 17.4048 16.5556C17.4048 18.5205 18.9954 20.1111 20.9603 20.1111Z" stroke="white" stroke-linecap="round" stroke-linejoin="round"/>
<path d="M30.0662 20.2047C31.4061 20.2047 32.4952 19.1193 32.4952 17.7757C32.4952 16.4321 31.4098 15.3467 30.0662 15.3467C28.7226 15.3467 27.6372 16.4321 27.6372 17.7757C27.6372 19.1193 28.7226 20.2047 30.0662 20.2047Z" stroke="white" stroke-linecap="round" stroke-linejoin="round"/>
<path d="M11.8543 20.2047C13.1942 20.2047 14.2833 19.1193 14.2833 17.7757C14.2833 16.4321 13.1979 15.3467 11.8543 15.3467C10.5107 15.3467 9.42529 16.4321 9.42529 17.7757C9.42529 19.1193 10.5107 20.2047 11.8543 20.2047Z" stroke="white" stroke-linecap="round" stroke-linejoin="round"/>
<path d="M28.0713 28.9998V27.2221C28.0713 26.2789 27.6971 25.3732 27.0309 24.707C26.3647 24.0408 25.4589 23.6665 24.5158 23.6665H17.4047C16.4615 23.6665 15.5558 24.0408 14.8896 24.707C14.2234 25.3732 13.8491 26.2789 13.8491 27.2221V28.9998" stroke="white" stroke-linecap="round" stroke-linejoin="round"/>
<path d="M34.9241 26.2754V25.0628C34.9241 24.4191 34.6696 23.8015 34.213 23.3449C33.7564 22.8883 33.1388 22.6338 32.4951 22.6338H27.6408C26.9971 22.6338 26.3795 22.8883 25.9229 23.3449C25.777 23.4909 25.6572 23.6518 25.5562 23.824" stroke="white" stroke-linecap="round" stroke-linejoin="round"/>
<path d="M16.368 23.8201C16.2669 23.6479 16.1434 23.487 16.0012 23.341C15.5446 22.8844 14.927 22.6299 14.2833 22.6299H9.42901C8.78526 22.6299 8.16772 22.8844 7.71111 23.341C7.2545 23.7976 7 24.4151 7 25.0589V26.2715" stroke="white" stroke-linecap="round" stroke-linejoin="round"/>
</svg>
