<svg width="42" height="42" viewBox="0 0 42 42" fill="none" xmlns="http://www.w3.org/2000/svg">
<circle cx="21" cy="21" r="21" fill="#1B294A"/>
<path d="M31.614 33.3152V30.6135C31.614 29.1804 31.0447 27.806 30.0314 26.7926C29.018 25.7793 27.6436 25.21 26.2105 25.21H15.4035C13.9704 25.21 12.596 25.7793 11.5827 26.7926C10.5693 27.806 10 29.1804 10 30.6135V33.3152" stroke="white" stroke-linecap="round" stroke-linejoin="round"/>
<path d="M20.8073 19.807C23.7916 19.807 26.2108 17.3878 26.2108 14.4035C26.2108 11.4192 23.7916 9 20.8073 9C17.823 9 15.4038 11.4192 15.4038 14.4035C15.4038 17.3878 17.823 19.807 20.8073 19.807Z" stroke="white" stroke-linecap="round" stroke-linejoin="round"/>
</svg>
