<svg width="68" height="68" viewBox="0 0 68 68" fill="none" xmlns="http://www.w3.org/2000/svg">
<g filter="url(#filter0_d_2433_5053)">
<circle cx="34" cy="30" r="29" fill="#2072B9" stroke="#1B294A" stroke-width="2"/>
<path d="M31.7605 16.4795H20.2801C19.4102 16.4795 18.5759 16.8251 17.9607 17.4402C17.3456 18.0554 17 18.8897 17 19.7596V42.7203C17 43.5903 17.3456 44.4246 17.9607 45.0397C18.5759 45.6549 19.4102 46.0004 20.2801 46.0004H43.2408C44.1108 46.0004 44.9451 45.6549 45.5602 45.0397C46.1754 44.4246 46.5209 43.5903 46.5209 42.7203V31.24" stroke="white" stroke-width="2" stroke-linecap="round" stroke-linejoin="round"/>
<path d="M44.0604 14.019C44.7128 13.3665 45.5978 13 46.5205 13C47.4432 13 48.3281 13.3665 48.9806 14.019C49.633 14.6715 49.9996 15.5564 49.9996 16.4791C49.9996 17.4018 49.633 18.2867 48.9806 18.9392L33.4001 34.5197L26.8398 36.1597L28.4799 29.5995L44.0604 14.019Z" stroke="white" stroke-width="2" stroke-linecap="round" stroke-linejoin="round"/>
</g>
<defs>
<filter id="filter0_d_2433_5053" x="0" y="0" width="68" height="68" filterUnits="userSpaceOnUse" color-interpolation-filters="sRGB">
<feFlood flood-opacity="0" result="BackgroundImageFix"/>
<feColorMatrix in="SourceAlpha" type="matrix" values="0 0 0 0 0 0 0 0 0 0 0 0 0 0 0 0 0 0 127 0" result="hardAlpha"/>
<feOffset dy="4"/>
<feGaussianBlur stdDeviation="2"/>
<feComposite in2="hardAlpha" operator="out"/>
<feColorMatrix type="matrix" values="0 0 0 0 0 0 0 0 0 0 0 0 0 0 0 0 0 0 0.25 0"/>
<feBlend mode="normal" in2="BackgroundImageFix" result="effect1_dropShadow_2433_5053"/>
<feBlend mode="normal" in="SourceGraphic" in2="effect1_dropShadow_2433_5053" result="shape"/>
</filter>
</defs>
</svg>
