<svg width="22" height="38" viewBox="0 0 22 38" fill="none" xmlns="http://www.w3.org/2000/svg">
<path d="M3.5501 4.31721C1.959 6.01531 0.96239 8.48897 1.00109 10.8157C1.0819 15.6779 3.27353 17.5184 6.77835 24.2103C8.04085 27.155 9.35852 30.2709 10.6117 35.4314C10.7859 36.1926 10.9558 36.8997 11.0343 36.9609C11.1129 37.0223 11.2828 36.3127 11.4569 35.5514C12.7101 30.3909 14.0278 27.2775 15.2903 24.3328C18.7951 17.641 20.9867 15.8004 21.0676 10.9382C21.1063 8.61146 20.1072 6.13534 18.5161 4.43724C16.6985 2.49744 13.9571 1.06185 11.0343 1.00182C8.1116 0.941748 5.36767 2.37742 3.5501 4.31721Z" fill="#05FF00" stroke="#195802" stroke-width="1.26462"/>
<path d="M11.0341 14.8347C13.1542 14.8347 14.8729 13.1161 14.8729 10.996C14.8729 8.87589 13.1542 7.15723 11.0341 7.15723C8.91402 7.15723 7.19531 8.87589 7.19531 10.996C7.19531 13.1161 8.91402 14.8347 11.0341 14.8347Z" fill="#195802"/>
</svg>
