<svg width="68" height="68" viewBox="0 0 68 68" fill="none" xmlns="http://www.w3.org/2000/svg">
<g filter="url(#filter0_d_509_57)">
<circle cx="34" cy="30" r="29" fill="#1B294A" stroke="#1B294A" stroke-width="2"/>
<path d="M49.2907 31.0582V41.3463C49.2907 42.1259 48.8943 42.8735 48.1886 43.4248C47.483 43.976 46.526 44.2857 45.5282 44.2857H19.1907C18.1928 44.2857 17.2358 43.976 16.5302 43.4248C15.8246 42.8735 15.4282 42.1259 15.4282 41.3463V20.7701C15.4282 19.9905 15.8246 19.2429 16.5302 18.6916C17.2358 18.1404 18.1928 17.8307 19.1907 17.8307H39.8844" stroke="white" stroke-width="2" stroke-linecap="round" stroke-linejoin="round"/>
<circle cx="26.0102" cy="23.1215" r="2.1164" fill="white"/>
<path d="M25.9545 27.7513L18.6028 38.9947H43.9996L37.5072 23.1217L31.5558 34.616L25.9545 27.7513Z" stroke="white" stroke-width="2" stroke-linejoin="round"/>
<path d="M48.9998 15.7142V25.7142" stroke="white" stroke-width="2" stroke-linecap="round"/>
<path d="M43.9998 20.7142L53.9998 20.7142" stroke="white" stroke-width="2" stroke-linecap="round"/>
</g>
<defs>
<filter id="filter0_d_509_57" x="0" y="0" width="68" height="68" filterUnits="userSpaceOnUse" color-interpolation-filters="sRGB">
<feFlood flood-opacity="0" result="BackgroundImageFix"/>
<feColorMatrix in="SourceAlpha" type="matrix" values="0 0 0 0 0 0 0 0 0 0 0 0 0 0 0 0 0 0 127 0" result="hardAlpha"/>
<feOffset dy="4"/>
<feGaussianBlur stdDeviation="2"/>
<feComposite in2="hardAlpha" operator="out"/>
<feColorMatrix type="matrix" values="0 0 0 0 0 0 0 0 0 0 0 0 0 0 0 0 0 0 0.25 0"/>
<feBlend mode="normal" in2="BackgroundImageFix" result="effect1_dropShadow_509_57"/>
<feBlend mode="normal" in="SourceGraphic" in2="effect1_dropShadow_509_57" result="shape"/>
</filter>
</defs>
</svg>
