<svg width="12" height="11" viewBox="0 0 12 11" fill="none" xmlns="http://www.w3.org/2000/svg">
<rect x="0.600098" width="11.0373" height="11" rx="5.5" fill="white"/>
<path d="M6.92115 2.2555C6.76958 2.09313 6.55527 2 6.33316 2H5.90437C5.68227 2 5.46796 2.09312 5.31641 2.25548C5.16486 2.41785 5.0867 2.63805 5.10198 2.85963L5.31638 5.96842C5.34534 6.38841 5.69777 6.71739 6.11876 6.71739C6.53974 6.71739 6.89217 6.38841 6.92115 5.96844L7.13554 2.85963C7.15082 2.63807 7.0727 2.41787 6.92115 2.2555Z" fill="#1B294A"/>
<path d="M6.11861 7.17383C5.61516 7.17383 5.20557 7.58342 5.20557 8.08687C5.20557 8.59032 5.61516 8.99991 6.11861 8.99991C6.62206 8.99991 7.03165 8.59032 7.03165 8.08687C7.03165 7.58342 6.62206 7.17383 6.11861 7.17383Z" fill="#1B294A"/>
</svg>
