<svg width="32" height="32" viewBox="0 0 32 32" fill="none" xmlns="http://www.w3.org/2000/svg">
<circle cx="16" cy="16" r="15" fill="#00C600" stroke="#1B294A" stroke-width="2"/>
<path d="M23.1436 14.0718C23.1436 19.5721 16.0718 24.2867 16.0718 24.2867C16.0718 24.2867 9 19.5721 9 14.0718C9 12.1963 9.74506 10.3975 11.0713 9.07129C12.3975 7.74506 14.1963 7 16.0718 7C17.9474 7 19.7461 7.74506 21.0723 9.07129C22.3986 10.3975 23.1436 12.1963 23.1436 14.0718Z" stroke="white" stroke-linecap="round" stroke-linejoin="round"/>
<path d="M16.0721 16.4294C17.374 16.4294 18.4294 15.374 18.4294 14.0721C18.4294 12.7702 17.374 11.7148 16.0721 11.7148C14.7702 11.7148 13.7148 12.7702 13.7148 14.0721C13.7148 15.374 14.7702 16.4294 16.0721 16.4294Z" stroke="white" stroke-linecap="round" stroke-linejoin="round"/>
</svg>
