<svg width="28" height="20" viewBox="0 0 28 20" fill="none" xmlns="http://www.w3.org/2000/svg">
<path d="M13.5321 9.44113C16.1353 9.44113 18.2527 7.32254 18.2527 4.72056C18.2527 2.11859 16.1353 0 13.5321 0C10.9289 0 8.81152 2.11859 8.81152 4.72056C8.81152 7.32254 10.9289 9.44113 13.5321 9.44113Z" fill="#1B294A"/>
<path d="M21.7143 11.4342C23.6516 11.4342 25.2289 9.85819 25.2289 7.92087C25.2289 5.98355 23.6516 4.40625 21.7143 4.40625C19.777 4.40625 18.1997 5.98355 18.1997 7.92087C18.1997 9.85819 19.777 11.4342 21.7143 11.4342Z" fill="#1B294A"/>
<path d="M5.35007 11.4342C7.28738 11.4342 8.86468 9.85819 8.86468 7.92087C8.86468 5.98355 7.28738 4.40625 5.35007 4.40625C3.41275 4.40625 1.83545 5.98355 1.83545 7.92087C1.83545 9.85819 3.41275 11.4342 5.35007 11.4342Z" fill="#1B294A"/>
<path fill-rule="evenodd" clip-rule="evenodd" d="M13.5326 10.0703C9.53589 10.0703 6.29443 13.3105 6.29443 17.3085V18.5673C6.29443 19.0885 6.7174 19.5114 7.23855 19.5114H19.8267C20.3479 19.5114 20.7708 19.0885 20.7708 18.5673V17.3085C20.7708 13.3105 17.5294 10.0703 13.5326 10.0703Z" fill="#1B294A"/>
<path d="M5.34997 12.5889C2.40056 12.5889 0 14.9882 0 17.9388C0 18.8062 0.706196 19.5124 1.57352 19.5124H5.06044C4.65007 18.8754 4.40586 18.1226 4.40586 17.3094C4.40586 15.5899 4.89302 13.9849 5.72258 12.6115C5.59922 12.6027 5.47585 12.5889 5.34997 12.5889Z" fill="#1B294A"/>
<path d="M21.7144 12.5889C21.5885 12.5889 21.4652 12.6027 21.3418 12.6115C22.1714 13.9849 22.6585 15.5899 22.6585 17.3094C22.6585 18.1226 22.4143 18.8754 22.0039 19.5124H25.4909C26.3582 19.5124 27.0644 18.8062 27.0644 17.9388C27.0644 14.9882 24.6638 12.5889 21.7144 12.5889Z" fill="#1B294A"/>
</svg>
