<svg width="14" height="12" viewBox="0 0 14 12" fill="none" xmlns="http://www.w3.org/2000/svg">
<path d="M6.94444 8.33333C5.83333 8.33333 4.72222 7.36111 4.16667 6.94444C1.38889 5 0.555556 4.30556 0 3.88889V9.72222C0 10.4891 0.621962 11.1111 1.38889 11.1111H12.5C13.2669 11.1111 13.8889 10.4891 13.8889 9.72222V3.88889C13.3333 4.30556 12.5 5 9.72222 6.94444C9.16667 7.36111 8.05556 8.33333 6.94444 8.33333ZM12.5 0H1.38889C0.621962 0 0 0.621962 0 1.38889V2.08333C1.11111 2.91667 0.972222 2.91667 5 5.83333C5.41667 6.11111 6.25 6.94444 6.94444 6.94444C7.63889 6.94444 8.47222 6.11111 8.88889 5.97222C12.9167 3.05555 12.7778 3.05556 13.8889 2.22222V1.38889C13.8889 1.38889 13.2669 0 12.5 0Z" fill="white"/>
</svg>
