<svg width="82" height="45" viewBox="0 0 82 45" fill="none" xmlns="http://www.w3.org/2000/svg">
<rect x="1" y="1" width="80" height="43.0029" rx="9" stroke="#1B294A" stroke-width="2"/>
<path d="M46.8463 19.4968L54.8315 14.8419C55.127 14.6668 55.5008 14.8799 55.5008 15.2234V31.4273C55.5008 31.6524 55.3894 31.8631 55.2033 31.9898L46.8866 37.6589C46.8626 37.6751 46.8301 37.6579 46.8301 37.629V19.4968" stroke="#1B294A" stroke-width="1.5" stroke-miterlimit="10" stroke-linecap="round"/>
<path d="M35.1719 16.418V32.1292L46.7345 37.645C46.7864 37.6697 46.8465 37.632 46.8465 37.5742L46.8303 19.4966L44.9305 18.6197" stroke="#1B294A" stroke-width="1.5" stroke-miterlimit="10" stroke-linecap="round"/>
<path d="M34.6596 14.8535L26.7176 19.7575C26.5828 19.8374 26.5 19.9826 26.5 20.1391V37.2867C26.5 37.5926 26.8426 37.7735 27.0953 37.6013L35.0977 32.1466C35.1435 32.1154 35.1711 32.0634 35.1711 32.0079V16.1191" stroke="#1B294A" stroke-width="1.5" stroke-miterlimit="10" stroke-linecap="round"/>
<path d="M40.9357 25.513C42.0359 23.9513 44.7995 19.7179 46.2229 14.7486C46.5778 13.5087 46.5223 12.1799 46.0235 10.9907C45.5195 9.79007 44.5322 8.45926 42.599 7.73183C41.4293 7.2918 40.1556 7.20119 38.955 7.54802C37.7645 7.89193 36.2876 8.69503 35.2649 10.5451C34.5869 11.7717 34.4151 13.2155 34.7372 14.5798C35.2279 16.6572 36.535 20.3859 40.0186 25.5049C40.2378 25.827 40.7116 25.8312 40.936 25.513H40.9357Z" stroke="#1B294A" stroke-width="1.5" stroke-miterlimit="10"/>
<path d="M40.5148 14.1976C41.6017 14.1976 42.4828 13.3166 42.4828 12.2297C42.4828 11.1428 41.6017 10.2617 40.5148 10.2617C39.428 10.2617 38.5469 11.1428 38.5469 12.2297C38.5469 13.3166 39.428 14.1976 40.5148 14.1976Z" stroke="#1B294A" stroke-width="1.5" stroke-miterlimit="10"/>
</svg>
