<svg width="25" height="25" viewBox="0 0 25 25" fill="none" xmlns="http://www.w3.org/2000/svg">
<path d="M12.1094 0C5.42139 0 0 5.42139 0 12.1094C0 18.7974 5.42139 24.2188 12.1094 24.2188C18.7974 24.2188 24.2188 18.7974 24.2188 12.1094C24.2188 5.42139 18.7974 0 12.1094 0ZM12.1094 21.0938C7.14404 21.0938 3.125 17.0757 3.125 12.1094C3.125 7.14404 7.14307 3.125 12.1094 3.125C17.0747 3.125 21.0938 7.14307 21.0938 12.1094C21.0938 17.0747 17.0757 21.0938 12.1094 21.0938ZM12.1094 5.85938C8.65771 5.85938 5.85938 8.65771 5.85938 12.1094C5.85938 15.561 8.65771 18.3594 12.1094 18.3594C15.561 18.3594 18.3594 15.561 18.3594 12.1094C18.3594 8.65771 15.561 5.85938 12.1094 5.85938ZM12.1094 15.2344C10.3862 15.2344 8.98438 13.8325 8.98438 12.1094C8.98438 10.3862 10.3862 8.98438 12.1094 8.98438C13.8325 8.98438 15.2344 10.3862 15.2344 12.1094C15.2344 13.8325 13.8325 15.2344 12.1094 15.2344Z" fill="white"/>
</svg>
