<svg width="17" height="16" viewBox="0 0 17 16" fill="none" xmlns="http://www.w3.org/2000/svg">
<path d="M8.5 9C11.1396 9 13.2812 6.98438 13.2812 4.5C13.2812 2.01562 11.1396 0 8.5 0C5.86035 0 3.71875 2.01562 3.71875 4.5C3.71875 6.98438 5.86035 9 8.5 9ZM12.75 10H10.9205C10.1834 10.3188 9.36328 10.5 8.5 10.5C7.63672 10.5 6.81992 10.3188 6.07949 10H4.25C1.90254 10 0 11.7906 0 14V14.5C0 15.3281 0.713867 16 1.59375 16H15.4062C16.2861 16 17 15.3281 17 14.5V14C17 11.7906 15.0975 10 12.75 10Z" fill="white"/>
</svg>
