<svg width="19" height="20" viewBox="0 0 19 20" fill="none" xmlns="http://www.w3.org/2000/svg">
<path d="M17.9658 14.2278V16.787C17.9668 17.0245 17.9181 17.2597 17.8229 17.4774C17.7277 17.6951 17.5881 17.8905 17.4131 18.0511C17.238 18.2117 17.0313 18.334 16.8063 18.4101C16.5812 18.4862 16.3427 18.5145 16.1061 18.4931C13.4811 18.2078 10.9596 17.3109 8.74419 15.8742C6.68305 14.5644 4.93556 12.8169 3.62582 10.7558C2.18413 8.53034 1.28694 5.99657 1.00692 3.35976C0.985606 3.12386 1.01364 2.8861 1.08924 2.66163C1.16485 2.43716 1.28636 2.23089 1.44605 2.05596C1.60574 1.88102 1.80011 1.74125 2.01677 1.64555C2.23344 1.54985 2.46766 1.50031 2.70452 1.50008H5.2637C5.6777 1.49601 6.07905 1.64261 6.39295 1.91257C6.70685 2.18252 6.91188 2.55741 6.96983 2.96735C7.07784 3.78635 7.27817 4.59049 7.56697 5.36445C7.68174 5.66978 7.70658 6.00162 7.63855 6.32063C7.57051 6.63965 7.41245 6.93248 7.18309 7.16441L6.0997 8.2478C7.31408 10.3835 9.08239 12.1518 11.2181 13.3662L12.3015 12.2828C12.5334 12.0534 12.8262 11.8954 13.1452 11.8273C13.4643 11.7593 13.7961 11.7841 14.1014 11.8989C14.8754 12.1877 15.6795 12.388 16.4985 12.4961C16.9129 12.5545 17.2914 12.7632 17.5619 13.0825C17.8324 13.4018 17.9762 13.8094 17.9658 14.2278Z" stroke="#1B294A" stroke-width="1.5" stroke-linecap="round" stroke-linejoin="round"/>
</svg>
