<svg width="68" height="68" viewBox="0 0 68 68" fill="none" xmlns="http://www.w3.org/2000/svg">
<g filter="url(#filter0_d_1690_461)">
<circle cx="34" cy="30" r="30" fill="#2072B9"/>
<circle cx="34" cy="30" r="29" stroke="#1B294A" stroke-width="2"/>
</g>
<path d="M17 16.7062V27.0395H27.3333" stroke="white" stroke-width="2" stroke-linecap="round" stroke-linejoin="round"/>
<path d="M21.3228 35.6506C22.4395 38.8201 24.556 41.5409 27.3534 43.4029C30.1508 45.265 33.4777 46.1675 36.8326 45.9744C40.1875 45.7813 43.3889 44.5031 45.9542 42.3324C48.5195 40.1617 50.3099 37.216 51.0556 33.9393C51.8012 30.6626 51.4618 27.2323 50.0884 24.1653C48.715 21.0982 46.382 18.5606 43.441 16.9348C40.4999 15.309 37.1102 14.683 33.7825 15.1512C30.4548 15.6194 27.3693 17.1564 24.9911 19.5306L17 27.0395" stroke="white" stroke-width="2" stroke-linecap="round" stroke-linejoin="round"/>
<defs>
<filter id="filter0_d_1690_461" x="0" y="0" width="68" height="68" filterUnits="userSpaceOnUse" color-interpolation-filters="sRGB">
<feFlood flood-opacity="0" result="BackgroundImageFix"/>
<feColorMatrix in="SourceAlpha" type="matrix" values="0 0 0 0 0 0 0 0 0 0 0 0 0 0 0 0 0 0 127 0" result="hardAlpha"/>
<feOffset dy="4"/>
<feGaussianBlur stdDeviation="2"/>
<feComposite in2="hardAlpha" operator="out"/>
<feColorMatrix type="matrix" values="0 0 0 0 0 0 0 0 0 0 0 0 0 0 0 0 0 0 0.25 0"/>
<feBlend mode="normal" in2="BackgroundImageFix" result="effect1_dropShadow_1690_461"/>
<feBlend mode="normal" in="SourceGraphic" in2="effect1_dropShadow_1690_461" result="shape"/>
</filter>
</defs>
</svg>
