<svg width="25" height="25" viewBox="0 0 25 25" fill="none" xmlns="http://www.w3.org/2000/svg">
<path d="M12.0872 1.96879e-05C8.85137 0.00583023 5.91343 1.28093 3.74438 3.35378L2.00054 1.60993C1.26226 0.871651 0 1.3945 0 2.43855V8.98439C0 9.63161 0.524658 10.1563 1.17188 10.1563H7.71772C8.76177 10.1563 9.28462 8.89401 8.54639 8.15573L6.50781 6.11716C8.01484 4.70607 9.96489 3.92443 12.0366 3.90656C16.5482 3.8676 20.3512 7.51872 20.3122 12.1801C20.2752 16.602 16.6902 20.3125 12.1094 20.3125C10.1012 20.3125 8.20327 19.5958 6.70752 18.2834C6.47593 18.0802 6.12617 18.0926 5.9083 18.3104L3.97168 20.247C3.73379 20.4849 3.74556 20.8728 3.99521 21.0983C6.14248 23.0378 8.98799 24.2188 12.1094 24.2188C18.7972 24.2188 24.2187 18.7972 24.2188 12.1095C24.2188 5.42937 18.7673 -0.0119432 12.0872 1.96879e-05Z" fill="white"/>
</svg>
