<svg width="60" height="60" viewBox="0 0 60 60" fill="none" xmlns="http://www.w3.org/2000/svg">
<circle cx="30" cy="30" r="29" fill="#2072B9" stroke="#1B294A" stroke-width="2"/>
<path d="M45.2907 31.0582V41.3463C45.2907 42.1259 44.8942 42.8735 44.1886 43.4248C43.483 43.976 42.526 44.2857 41.5282 44.2857H15.1907C14.1928 44.2857 13.2358 43.976 12.5302 43.4248C11.8246 42.8735 11.4282 42.1259 11.4282 41.3463V20.7701C11.4282 19.9905 11.8246 19.2429 12.5302 18.6916C13.2358 18.1404 14.1928 17.8307 15.1907 17.8307H35.8844" stroke="white" stroke-width="1.5" stroke-linecap="round" stroke-linejoin="round"/>
<circle cx="22.01" cy="23.1217" r="2.1164" fill="white"/>
<path d="M21.954 27.7514L14.6023 38.9948H39.9991L33.5067 23.1218L27.5553 34.616L21.954 27.7514Z" stroke="white" stroke-width="1.56" stroke-linejoin="round"/>
<path d="M44.9998 15.7143V25.7143" stroke="white" stroke-width="1.5" stroke-linecap="round"/>
<path d="M39.9995 20.7142L49.9995 20.7142" stroke="white" stroke-width="1.5" stroke-linecap="round"/>
</svg>
