<svg width="25" height="22" viewBox="0 0 25 22" fill="none" xmlns="http://www.w3.org/2000/svg">
<path d="M12.5 0C5.5957 0 0 4.5459 0 10.1562C0 12.5781 1.04492 14.7949 2.7832 16.5381C2.17285 18.999 0.131836 21.1914 0.107422 21.2158C0 21.3281 -0.0292969 21.4941 0.0341797 21.6406C0.0976562 21.7871 0.234375 21.875 0.390625 21.875C3.62793 21.875 6.05469 20.3223 7.25586 19.3652C8.85254 19.9658 10.625 20.3125 12.5 20.3125C19.4043 20.3125 25 15.7666 25 10.1562C25 4.5459 19.4043 0 12.5 0ZM6.25977 13.2812H5.66406C5.44922 13.2812 5.27344 13.1055 5.27344 12.8906V12.1094C5.27344 11.8945 5.44922 11.7188 5.66406 11.7188H6.26465C6.55762 11.7188 6.77246 11.5479 6.77246 11.3965C6.77246 11.333 6.7334 11.2646 6.66992 11.2109L5.60059 10.293C5.18555 9.94141 4.95117 9.43848 4.95117 8.9209C4.95117 7.88086 5.87891 7.03613 7.02148 7.03613H7.61719C7.83203 7.03613 8.00781 7.21191 8.00781 7.42676V8.20801C8.00781 8.42285 7.83203 8.59863 7.61719 8.59863H7.0166C6.72363 8.59863 6.50879 8.76953 6.50879 8.9209C6.50879 8.98438 6.54785 9.05273 6.61133 9.10645L7.68066 10.0244C8.0957 10.376 8.33008 10.8789 8.33008 11.3965C8.33496 12.4365 7.40234 13.2812 6.25977 13.2812ZM15.625 12.8906C15.625 13.1055 15.4492 13.2812 15.2344 13.2812H14.4531C14.2383 13.2812 14.0625 13.1055 14.0625 12.8906V9.56055L12.8516 12.2852C12.71 12.5732 12.2949 12.5732 12.1533 12.2852L10.9375 9.56055V12.8906C10.9375 13.1055 10.7617 13.2812 10.5469 13.2812H9.76562C9.55078 13.2812 9.375 13.1055 9.375 12.8906V7.8125C9.375 7.38281 9.72656 7.03125 10.1562 7.03125H10.9375C11.2354 7.03125 11.5039 7.19727 11.6357 7.46094L12.5 9.18945L13.3643 7.46094C13.4961 7.19727 13.7695 7.03125 14.0625 7.03125H14.8438C15.2734 7.03125 15.625 7.38281 15.625 7.8125V12.8906ZM17.9834 13.2812H17.3828C17.168 13.2812 16.9922 13.1055 16.9922 12.8906V12.1094C16.9922 11.8945 17.168 11.7188 17.3828 11.7188H17.9834C18.2764 11.7188 18.4912 11.5479 18.4912 11.3965C18.4912 11.333 18.4521 11.2646 18.3887 11.2109L17.3193 10.293C16.9043 9.94141 16.6699 9.43848 16.6699 8.9209C16.6699 7.88086 17.5977 7.03613 18.7402 7.03613H19.3359C19.5508 7.03613 19.7266 7.21191 19.7266 7.42676V8.20801C19.7266 8.42285 19.5508 8.59863 19.3359 8.59863H18.7354C18.4424 8.59863 18.2275 8.76953 18.2275 8.9209C18.2275 8.98438 18.2666 9.05273 18.3301 9.10645L19.3994 10.0244C19.8145 10.376 20.0488 10.8789 20.0488 11.3965C20.0537 12.4365 19.126 13.2812 17.9834 13.2812Z" fill="#2072B9"/>
</svg>
