<svg width="24" height="20" viewBox="0 0 24 20" fill="none" xmlns="http://www.w3.org/2000/svg">
<path d="M2.96429 15.0878H3.71429V14.3378H2.96429V15.0878ZM3.8826 18.6853L3.25513 18.2744H3.25513L3.8826 18.6853ZM6.2381 15.0878V14.3378H5.8327L5.61063 14.6769L6.2381 15.0878ZM1.75 1.58777C1.75 1.72584 1.63807 1.83777 1.5 1.83777V0.337769C0.809645 0.337769 0.25 0.897412 0.25 1.58777H1.75ZM1.75 14.5878V1.58777H0.25V14.5878H1.75ZM1.5 14.3378C1.63807 14.3378 1.75 14.4497 1.75 14.5878H0.25C0.25 15.2781 0.809642 15.8378 1.5 15.8378V14.3378ZM2.96429 14.3378H1.5V15.8378H2.96429V14.3378ZM2.21429 15.0878V18.4114H3.71429V15.0878H2.21429ZM2.21429 18.4114C2.21429 19.6535 3.82964 20.1353 4.51006 19.0961L3.25513 18.2744C3.28031 18.236 3.32743 18.1959 3.38923 18.1755C3.44499 18.1571 3.49591 18.1599 3.53574 18.1718C3.57557 18.1837 3.61972 18.2092 3.65629 18.2551C3.69683 18.3061 3.71429 18.3654 3.71429 18.4114H2.21429ZM4.51006 19.0961L6.86556 15.4986L5.61063 14.6769L3.25513 18.2744L4.51006 19.0961ZM22.5 14.3378H6.2381V15.8378H22.5V14.3378ZM22.25 14.5878C22.25 14.4497 22.3619 14.3378 22.5 14.3378V15.8378C23.1904 15.8378 23.75 15.2781 23.75 14.5878H22.25ZM22.25 1.58777V14.5878H23.75V1.58777H22.25ZM22.5 1.83777C22.3619 1.83777 22.25 1.72584 22.25 1.58777H23.75C23.75 0.897412 23.1904 0.337769 22.5 0.337769V1.83777ZM1.5 1.83777H22.5V0.337769H1.5V1.83777Z" fill="#1B294A"/>
<path d="M7.79758 9.3875C7.79758 9.73082 7.71319 10.0305 7.54441 10.2867C7.37563 10.5428 7.13062 10.7417 6.80939 10.8834C6.49361 11.0196 6.10705 11.0878 5.6497 11.0878C5.44825 11.0878 5.24953 11.0741 5.05352 11.0469C4.86296 11.0196 4.67785 10.9815 4.49818 10.9325C4.32395 10.878 4.15789 10.8126 4 10.7363V9.58368C4.27767 9.70357 4.56351 9.81529 4.85752 9.91883C5.15697 10.0169 5.4537 10.066 5.74771 10.066C5.94915 10.066 6.10977 10.0387 6.22955 9.98423C6.35477 9.92973 6.44461 9.85616 6.49906 9.76352C6.55895 9.67088 6.58889 9.56461 6.58889 9.44472C6.58889 9.29758 6.53717 9.17224 6.43372 9.0687C6.33572 8.96515 6.20233 8.86978 6.03354 8.78259C5.86476 8.68995 5.67148 8.59186 5.4537 8.48831C5.31758 8.42292 5.17058 8.34662 5.01269 8.25943C4.8548 8.16679 4.70235 8.05507 4.55535 7.92428C4.41379 7.78804 4.29673 7.62455 4.20417 7.43382C4.11161 7.24308 4.06533 7.0142 4.06533 6.74717C4.06533 6.3984 4.14428 6.10139 4.30217 5.85616C4.46551 5.60548 4.69418 5.41474 4.98819 5.28395C5.28764 5.15316 5.63881 5.08777 6.04171 5.08777C6.34661 5.08777 6.63517 5.12319 6.9074 5.19404C7.18507 5.26488 7.47363 5.3657 7.77308 5.49649L7.37291 6.46107C7.10612 6.35207 6.86656 6.26761 6.65423 6.20766C6.44189 6.14771 6.2241 6.11774 6.00088 6.11774C5.84843 6.11774 5.71776 6.14226 5.60887 6.19131C5.49998 6.24036 5.41559 6.30848 5.3557 6.39567C5.30125 6.48286 5.27403 6.58641 5.27403 6.7063C5.27403 6.84254 5.31486 6.9597 5.39653 7.0578C5.4782 7.15044 5.6007 7.24036 5.76404 7.32755C5.92738 7.41474 6.13155 7.51829 6.37655 7.63818C6.676 7.77987 6.92918 7.92701 7.13607 8.07959C7.34841 8.23218 7.51174 8.41202 7.62608 8.6191C7.74042 8.82619 7.79758 9.08232 7.79758 9.3875Z" fill="#1B294A"/>
<path d="M11.3239 11.006L9.91918 6.42837H9.88651C9.89195 6.53736 9.90012 6.70085 9.91101 6.91883C9.9219 7.13682 9.93279 7.37115 9.94368 7.62183C9.95457 7.86706 9.96001 8.09049 9.96001 8.29213V11.006H8.85749V5.16951H10.5399L11.9201 9.63273H11.9446L13.4064 5.16951H15.0888V11.006H13.9373V8.24308C13.9373 8.0578 13.94 7.84526 13.9454 7.60548C13.9563 7.3657 13.9645 7.13954 13.9699 6.92701C13.9808 6.70902 13.989 6.54553 13.9944 6.43654H13.9618L12.4591 11.006H11.3239Z" fill="#1B294A"/>
<path d="M20 9.3875C20 9.73082 19.9156 10.0305 19.7468 10.2867C19.578 10.5428 19.333 10.7417 19.0118 10.8834C18.696 11.0196 18.3095 11.0878 17.8521 11.0878C17.6507 11.0878 17.4519 11.0741 17.2559 11.0469C17.0654 11.0196 16.8803 10.9815 16.7006 10.9325C16.5264 10.878 16.3603 10.8126 16.2024 10.7363V9.58368C16.4801 9.70357 16.7659 9.81529 17.0599 9.91883C17.3594 10.0169 17.6561 10.066 17.9501 10.066C18.1516 10.066 18.3122 10.0387 18.432 9.98423C18.5572 9.92973 18.647 9.85616 18.7015 9.76352C18.7614 9.67088 18.7913 9.56461 18.7913 9.44472C18.7913 9.29758 18.7396 9.17224 18.6361 9.0687C18.5381 8.96515 18.4047 8.86978 18.236 8.78259C18.0672 8.68995 17.8739 8.59186 17.6561 8.48831C17.52 8.42292 17.373 8.34662 17.2151 8.25943C17.0572 8.16679 16.9048 8.05507 16.7578 7.92428C16.6162 7.78804 16.4991 7.62455 16.4066 7.43382C16.314 7.24308 16.2678 7.0142 16.2678 6.74717C16.2678 6.3984 16.3467 6.10139 16.5046 5.85616C16.6679 5.60548 16.8966 5.41474 17.1906 5.28395C17.4901 5.15316 17.8412 5.08777 18.2441 5.08777C18.549 5.08777 18.8376 5.12319 19.1098 5.19404C19.3875 5.26488 19.676 5.3657 19.9755 5.49649L19.5753 6.46107C19.3085 6.35207 19.069 6.26761 18.8566 6.20766C18.6443 6.14771 18.4265 6.11774 18.2033 6.11774C18.0508 6.11774 17.9202 6.14226 17.8113 6.19131C17.7024 6.24036 17.618 6.30848 17.5581 6.39567C17.5037 6.48286 17.4764 6.58641 17.4764 6.7063C17.4764 6.84254 17.5173 6.9597 17.5989 7.0578C17.6806 7.15044 17.8031 7.24036 17.9665 7.32755C18.1298 7.41474 18.334 7.51829 18.579 7.63818C18.8784 7.77987 19.1316 7.92701 19.3385 8.07959C19.5508 8.23218 19.7142 8.41202 19.8285 8.6191C19.9428 8.82619 20 9.08232 20 9.3875Z" fill="#1B294A"/>
</svg>
