<svg width="27" height="24" viewBox="0 0 27 24" fill="none" xmlns="http://www.w3.org/2000/svg">
<path d="M24.5567 0H12.895C11.5454 0 10.4517 1.1083 10.4517 2.47531V8.29479C11.0681 8.6052 11.7342 8.94085 12.3559 9.25393L13.3071 7.3258C13.883 6.15985 15.2871 5.68613 16.4376 6.26859C17.5905 6.8531 18.0577 8.27161 17.4805 9.43981L15.7849 12.8763C15.8298 13.3312 15.7899 13.7897 15.6633 14.2335H16.7828L13.8302 22.4589C13.655 22.9468 13.9936 23.5161 14.5613 23.5161C14.8786 23.5161 15.1771 23.3177 15.2917 22.9973L18.4376 14.2335H18.9825L22.1604 22.9999C22.276 23.3188 22.5737 23.5161 22.8908 23.5161C23.4212 23.5161 23.8101 22.9794 23.6203 22.4569L20.6393 14.2335H24.5567C25.9061 14.2335 27 13.1252 27 11.7582V2.47531C27 1.1083 25.9061 0 24.5567 0ZM22.8904 10.8583H19.4013C18.972 10.8583 18.6237 10.5054 18.6237 10.0705C18.6237 9.63513 18.972 9.28266 19.4013 9.28266H22.8904C23.3202 9.28266 23.6681 9.63513 23.6681 10.0705C23.6681 10.5054 23.3202 10.8583 22.8904 10.8583ZM22.8904 7.90457H19.4013C18.972 7.90457 18.6237 7.5521 18.6237 7.11674C18.6237 6.68179 18.972 6.32891 19.4013 6.32891H22.8904C23.3202 6.32891 23.6681 6.68179 23.6681 7.11674C23.6681 7.5521 23.3202 7.90457 22.8904 7.90457ZM22.8904 4.95123H14.5613C14.1315 4.95123 13.7836 4.59835 13.7836 4.1634C13.7836 3.72845 14.1315 3.37557 14.5613 3.37557H22.8904C23.3202 3.37557 23.6681 3.72845 23.6681 4.1634C23.6681 4.59835 23.3202 4.95123 22.8904 4.95123Z" fill="#1B294A"/>
<path d="M13.6493 13.9688C13.7895 13.5549 13.7885 13.1224 13.6701 12.7278L15.5954 8.84741C15.7869 8.46116 15.6317 7.99143 15.2485 7.7984C14.8655 7.60518 14.3994 7.76175 14.2077 8.148L12.5657 11.4575C11.5843 10.965 10.0931 10.2177 8.89193 9.61563C7.77435 9.0555 6.97678 8.55319 5.61597 8.55319H4.93051C5.99011 8.55319 6.93577 8.06167 7.55476 7.29243C8.02708 6.70705 8.3095 5.96101 8.3095 5.14799C8.3095 3.26683 6.79678 1.74219 4.93011 1.74219C3.06425 1.74219 1.55152 3.26683 1.55152 5.14799C1.55152 6.05142 1.90061 6.87238 2.4701 7.48158C3.08586 8.14149 3.96041 8.55319 4.9299 8.55339C3.63011 8.55339 2.3594 9.08421 1.44525 10.008C0.513334 10.9448 0 12.1929 0 13.5225V16.0349C0 17.1165 0.696769 18.0368 1.66182 18.3642V22.7345C1.66182 23.1664 2.00909 23.5164 2.43758 23.5164H7.42304C7.85152 23.5164 8.1988 23.1664 8.1988 22.7345V13.9497C8.93435 14.3203 9.90062 14.8071 10.6824 15.2013C11.2305 15.4774 11.8709 15.5022 12.442 15.2681C13.0115 15.0319 13.4505 14.5618 13.6463 13.978C13.6473 13.975 13.6483 13.9719 13.6493 13.9688Z" fill="#1B294A"/>
</svg>
