<svg width="83" height="83" viewBox="0 0 83 83" fill="none" xmlns="http://www.w3.org/2000/svg">
<path d="M41.5 0C18.5746 0 0 18.5746 0 41.5C0 64.4254 18.5746 83 41.5 83C64.4254 83 83 64.4254 83 41.5C83 18.5746 64.4254 0 41.5 0ZM41.5 16.0645C49.6327 16.0645 56.2258 22.6577 56.2258 30.7903C56.2258 38.923 49.6327 45.5161 41.5 45.5161C33.3673 45.5161 26.7742 38.923 26.7742 30.7903C26.7742 22.6577 33.3673 16.0645 41.5 16.0645ZM41.5 73.629C31.6772 73.629 22.8752 69.1778 16.9849 62.2165C20.1308 56.2927 26.2889 52.2097 33.4677 52.2097C33.8694 52.2097 34.271 52.2766 34.6558 52.3938C36.8313 53.0966 39.1071 53.5484 41.5 53.5484C43.8929 53.5484 46.1855 53.0966 48.3442 52.3938C48.729 52.2766 49.1306 52.2097 49.5323 52.2097C56.7111 52.2097 62.8692 56.2927 66.0151 62.2165C60.1248 69.1778 51.3228 73.629 41.5 73.629Z" fill="#1B294A"/>
</svg>
