<svg width="25" height="20" viewBox="0 0 25 20" fill="none" xmlns="http://www.w3.org/2000/svg">
<path d="M12.4999 15.6251C10.0959 15.6251 8.06348 14.1153 7.2644 11.9934C6.90297 11.0336 6.45467 10.0675 5.64321 9.44038L4.88287 8.85277C3.73873 7.96854 2.04485 8.14307 1.38585 9.43018C1.29649 9.60694 1.24994 9.80223 1.24994 10.0003C1.24994 10.1984 1.29649 10.3937 1.38585 10.5704C3.50421 14.7036 7.69796 17.5001 12.4999 17.5001C12.8298 17.5001 13.1561 17.4847 13.4787 17.4558C14.3301 17.3795 14.5592 16.3307 13.8832 15.8076C13.6495 15.6268 13.3498 15.5605 13.056 15.5924C12.8714 15.6124 12.6858 15.6234 12.4999 15.6251ZM24.7585 17.8946L24.4989 17.694C22.4111 16.0804 22.4094 12.9176 23.614 10.57C23.7033 10.3933 23.7499 10.198 23.7499 9.99991C23.7499 9.80184 23.7033 9.60655 23.614 9.42979C21.4956 5.29659 17.3019 2.5001 12.4999 2.5001C11.5841 2.50121 10.675 2.60681 9.78982 2.81252C7.85584 3.26196 5.73038 3.18837 4.15941 1.97414L1.7757 0.131743C1.71089 0.0813164 1.63679 0.0441535 1.55762 0.022378C1.47844 0.000602454 1.39576 -0.0053588 1.31428 0.00483485C1.2328 0.0150285 1.15413 0.0411773 1.08277 0.0817869C1.0114 0.122396 0.948736 0.176671 0.898353 0.241509L0.131556 1.22862C0.0298368 1.35947 -0.015743 1.52537 0.00484145 1.68982C0.0254259 1.85428 0.110489 2.00383 0.241322 2.10557L23.2241 19.8685C23.2889 19.9189 23.363 19.9561 23.4422 19.9778C23.5214 19.9996 23.6041 20.0056 23.6856 19.9954C23.767 19.9852 23.8457 19.959 23.9171 19.9184C23.9884 19.8778 24.0511 19.8235 24.1015 19.7587L24.8687 18.7716C24.9703 18.6407 25.0159 18.4748 24.9952 18.3103C24.9745 18.1458 24.8894 17.9963 24.7585 17.8946ZM17.5819 12.3478C17.5819 12.3478 17.5819 12.3478 17.5819 12.3477L16.9587 11.866C16.4138 11.4447 16.2344 10.7197 16.2494 10.0311C16.2496 10.0208 16.2498 10.0104 16.2499 10.0001C16.2575 9.4213 16.1293 8.84877 15.8755 8.32852C15.6217 7.80826 15.2495 7.35477 14.7886 7.00448C14.3278 6.65419 13.7912 6.41687 13.2221 6.31156C13.0416 6.27818 12.8595 6.25836 12.6772 6.25203C12.1047 6.23214 11.8739 6.92727 11.8749 7.5001C11.8666 7.68815 11.6504 7.76367 11.5014 7.64856L10.2417 6.67497C9.57285 6.15806 9.56055 5.14316 10.3391 4.81397C11.0179 4.52699 11.752 4.37566 12.4999 4.3751C13.2387 4.37469 13.9704 4.51991 14.653 4.80244C15.3356 5.08498 15.9559 5.4993 16.4783 6.02171C17.0007 6.54412 17.415 7.16438 17.6976 7.84702C17.9801 8.52966 18.1253 9.2613 18.1249 10.0001C18.1249 10.8449 17.9183 11.6323 17.5821 12.3478C17.5821 12.3479 17.5819 12.3479 17.5819 12.3478Z" fill="#1B294A"/>
</svg>
