<svg width="91" height="91" viewBox="0 0 91 91" fill="none" xmlns="http://www.w3.org/2000/svg">
<circle cx="45.5" cy="45.5" r="45.5" fill="#1B294A"/>
<path d="M53.6667 64.0002V59.7779C53.6667 57.5383 52.777 55.3905 51.1933 53.8068C49.6097 52.2232 47.4618 51.3335 45.2222 51.3335H30.4444C28.2048 51.3335 26.057 52.2232 24.4733 53.8068C22.8897 55.3905 22 57.5383 22 59.7779V64.0002" stroke="white" stroke-width="2" stroke-linecap="round" stroke-linejoin="round"/>
<path d="M37.8341 42.8889C42.4978 42.8889 46.2785 39.1082 46.2785 34.4444C46.2785 29.7807 42.4978 26 37.8341 26C33.1704 26 29.3896 29.7807 29.3896 34.4444C29.3896 39.1082 33.1704 42.8889 37.8341 42.8889Z" stroke="white" stroke-width="2" stroke-linecap="round" stroke-linejoin="round"/>
<path d="M62.1104 36.5557V49.2223" stroke="white" stroke-width="2" stroke-linecap="round" stroke-linejoin="round"/>
<path d="M68.445 42.8887H55.7783" stroke="white" stroke-width="2" stroke-linecap="round" stroke-linejoin="round"/>
</svg>
